
<svg xmlns="http://www.w3.org/2000/svg" viewBox="0 0 32 32">
  <defs>
    <linearGradient id="glow" x1="0%" y1="0%" x2="100%" y2="100%">
      <stop offset="0%" style="stop-color:#9b87f5;stop-opacity:1" />
      <stop offset="100%" style="stop-color:#7E69AB;stop-opacity:1" />
    </linearGradient>
  </defs>
  <!-- Background Sphere -->
  <circle cx="16" cy="16" r="15" fill="url(#glow)" />
  <!-- Brain/Mind Circuit Pattern -->
  <path d="M16 8c-4.4 0-8 3.6-8 8s3.6 8 8 8 8-3.6 8-8-3.6-8-8-8zm0 2c3.3 0 6 2.7 6 6s-2.7 6-6 6-6-2.7-6-6 2.7-6 6-6z" fill="white" fill-opacity="0.2" />
  <circle cx="16" cy="16" r="3" fill="white" fill-opacity="0.8" />
  <path d="M16 13v1m0 4v1m-3-3h-1m4 0h1" stroke="white" stroke-width="1.5" stroke-linecap="round" />
</svg>
